<svg width="32" height="32" viewBox="0 0 32 32" fill="none" xmlns="http://www.w3.org/2000/svg">
<path d="M32 16.75C32 17.8687 31.7312 18.9063 31.1937 19.8563C30.6562 20.8063 29.9375 21.55 29.0312 22.0687C29.0562 22.2375 29.0687 22.5 29.0687 22.8563C29.0687 24.55 28.5 25.9875 27.375 27.175C26.2437 28.3687 24.8812 28.9625 23.2875 28.9625C22.575 28.9625 21.8938 28.8312 21.25 28.5687C20.75 29.5937 20.0312 30.4187 19.0875 31.05C18.15 31.6875 17.1187 32 16 32C14.8562 32 13.8187 31.6937 12.8937 31.0687C11.9625 30.45 11.25 29.6187 10.75 28.5687C10.1062 28.8312 9.43125 28.9625 8.7125 28.9625C7.11875 28.9625 5.75 28.3687 4.60625 27.175C3.4625 25.9875 2.89375 24.5438 2.89375 22.8563C2.89375 22.6688 2.91875 22.4062 2.9625 22.0687C2.05625 21.5437 1.3375 20.8063 0.8 19.8563C0.26875 18.9063 0 17.8687 0 16.75C0 15.5625 0.3 14.4688 0.89375 13.4812C1.4875 12.4937 2.2875 11.7625 3.2875 11.2875C3.025 10.575 2.89375 9.85625 2.89375 9.14375C2.89375 7.45625 3.4625 6.0125 4.60625 4.825C5.75 3.6375 7.11875 3.0375 8.7125 3.0375C9.425 3.0375 10.1062 3.16875 10.75 3.43125C11.25 2.40625 11.9688 1.58125 12.9125 0.95C13.85 0.31875 14.8813 0 16 0C17.1187 0 18.15 0.31875 19.0875 0.94375C20.025 1.575 20.75 2.4 21.25 3.425C21.8938 3.1625 22.5687 3.03125 23.2875 3.03125C24.8812 3.03125 26.2437 3.625 27.375 4.81875C28.5063 6.0125 29.0687 7.45 29.0687 9.1375C29.0687 9.925 28.95 10.6375 28.7125 11.2812C29.7125 11.7562 30.5125 12.4875 31.1062 13.475C31.7 14.4687 32 15.5625 32 16.75ZM15.3187 21.5687L21.925 11.675C22.0937 11.4125 22.1437 11.125 22.0875 10.8188C22.025 10.5125 21.8687 10.2688 21.6063 10.1062C21.3438 9.9375 21.0562 9.88125 20.75 9.925C20.4375 9.975 20.1875 10.125 20 10.3875L14.1812 19.1375L11.5 16.4625C11.2625 16.225 10.9875 16.1125 10.6812 16.125C10.3687 16.1375 10.1 16.25 9.8625 16.4625C9.65 16.675 9.54375 16.9437 9.54375 17.2687C9.54375 17.5875 9.65 17.8563 9.8625 18.075L13.5437 21.7562L13.725 21.9C13.9375 22.0437 14.1562 22.1125 14.3687 22.1125C14.7875 22.1062 15.1062 21.9312 15.3187 21.5687Z" fill="#1DA1F2"/>
</svg>
